# xmcd
#
# Track frame offsets:
# 180
# 12077
# 33093
# 51513
# 57907
# 94135
# 97188
# 112125
# 117379
# 144352
# 161115
# 174468
# 191404
# 211228
# 219600
#
# Disc length: 3112 seconds
#
# Revision: 0
# Processed by: cddbd v1.5.1PL0 Copyright (c) Steve Scherf et al.
# Submitted via: Audion 3.0.2 (http://www.panic.com/audion/)
#
DISCID=d90c260f
DTITLE=Globi - Globi bei den Höhlenbewohnern
DYEAR=1900
DGENRE=
TTITLE0=Im Museum
TTITLE1=De Raubtiersaurier Friss-Frass
TTITLE2=D'Höölebeoner-Familie Spaltenstei
TTITLE3=S Höölebewonder-Lied
TTITLE4=Ritt um em Brontosaurier Bronti
TTITLE5=S Riiter Lied
TTITLE6=De Globi bringt s Füür id Hööli
TTITLE7=S Lied am Füür
TTITLE8=Bad im Kratersee
TTITLE9=Bim Säbelzahntiger
TTITLE10=S Mammut als Lift
TTITLE11=De Bumerang
TTITLE12=Erdbebe und Vulkanausbruch
TTITLE13=d' Höölebewoner werded Pfahlbauer
TTITLE14=S Pfaalbauer-Lied
EXTD=
EXTT0=
EXTT1=
EXTT2=
EXTT3=
EXTT4=
EXTT5=
EXTT6=
EXTT7=
EXTT8=
EXTT9=
EXTT10=
EXTT11=
EXTT12=
EXTT13=
EXTT14=
PLAYORDER=
